<?xml version="1.0" encoding="UTF-8" standalone="no"?><svg xmlns="http://www.w3.org/2000/svg" xmlns:xlink="http://www.w3.org/1999/xlink" contentStyleType="text/css" height="297px" preserveAspectRatio="none" style="width:225px;height:297px;background:#FFFFFF;" version="1.1" viewBox="0 0 225 297" width="225px" zoomAndPan="magnify"><defs/><g><!--MD5=[e2874ff430e96dc9bdb612b3e0b4c395]
entity be_connected--><g id="elem_be_connected"><polygon fill="#F1F1F1" points="21,171,31,161,203,161,203,270.1875,193,280.1875,21,280.1875,21,171" style="stroke:#181818;stroke-width:0.5;"/><line style="stroke:#181818;stroke-width:0.5;" x1="193" x2="203" y1="171" y2="161"/><line style="stroke:#181818;stroke-width:0.5;" x1="21" x2="193" y1="171" y2="171"/><line style="stroke:#181818;stroke-width:0.5;" x1="193" x2="193" y1="171" y2="280.1875"/><text fill="#000000" font-family="sans-serif" font-size="14" lengthAdjust="spacing" textLength="142" x="36" y="193.9951">connected machine</text><line style="stroke:#181818;stroke-width:1.0;" x1="21" x2="193" y1="197.2969" y2="197.2969"/><line style="stroke:#181818;stroke-width:1.0;" x1="193" x2="203" y1="197.2969" y2="187.2969"/><text fill="#000000" font-family="sans-serif" font-size="14" lengthAdjust="spacing" textLength="45" x="36" y="214.292">server</text><line style="stroke:#181818;stroke-width:1.0;" x1="21" x2="193" y1="221.5938" y2="221.5938"/><line style="stroke:#181818;stroke-width:1.0;" x1="193" x2="203" y1="221.5938" y2="211.5938"/><text fill="#000000" font-family="sans-serif" font-size="14" lengthAdjust="spacing" textLength="138" x="36" y="238.5889">enable RDP service</text><line style="stroke:#181818;stroke-width:1.0;" x1="21" x2="193" y1="245.8906" y2="245.8906"/><line style="stroke:#181818;stroke-width:1.0;" x1="193" x2="203" y1="245.8906" y2="235.8906"/><text fill="#000000" font-family="sans-serif" font-size="14" lengthAdjust="spacing" textLength="141" x="36" y="262.8857">Listen on port 3389</text></g><!--MD5=[1aa241eeb37081fd15bb0f8856a6ec00]
entity connect--><g id="elem_connect"><polygon fill="#F1F1F1" points="16,16,26,6,208,6,208,90.8906,198,100.8906,16,100.8906,16,16" style="stroke:#181818;stroke-width:0.5;"/><line style="stroke:#181818;stroke-width:0.5;" x1="198" x2="208" y1="16" y2="6"/><line style="stroke:#181818;stroke-width:0.5;" x1="16" x2="198" y1="16" y2="16"/><line style="stroke:#181818;stroke-width:0.5;" x1="198" x2="198" y1="16" y2="100.8906"/><text fill="#000000" font-family="sans-serif" font-size="14" lengthAdjust="spacing" textLength="152" x="31" y="38.9951">computer for control</text><line style="stroke:#181818;stroke-width:1.0;" x1="16" x2="198" y1="42.2969" y2="42.2969"/><line style="stroke:#181818;stroke-width:1.0;" x1="198" x2="208" y1="42.2969" y2="32.2969"/><text fill="#000000" font-family="sans-serif" font-size="14" lengthAdjust="spacing" textLength="41" x="31" y="59.292">client</text><line style="stroke:#181818;stroke-width:1.0;" x1="16" x2="198" y1="66.5938" y2="66.5938"/><line style="stroke:#181818;stroke-width:1.0;" x1="198" x2="208" y1="66.5938" y2="56.5938"/><text fill="#000000" font-family="sans-serif" font-size="14" lengthAdjust="spacing" textLength="43" x="31" y="83.5889">mstsc</text></g><!--MD5=[cd978c70607678d6c4a081fff421f34f]
link connect to be_connected--><g id="link_connect_be_connected"><path codeLine="19" d="M112,101.341 C112,118.236 112,137.602 112,155.7 " fill="none" id="connect-to-be_connected" style="stroke:#181818;stroke-width:1.0;"/><polygon fill="#181818" points="112,160.768,116,151.768,112,155.768,108,151.768,112,160.768" style="stroke:#181818;stroke-width:1.0;"/></g><!--MD5=[9dfecd5a3f80f077c5024755092cac56]
@startuml
node be_connected[
connected machine
- - - -
server
- - - -
enable RDP service
- - - -
Listen on port 3389
]

node connect[
computer for control
- - - -
client
- - - -
mstsc
]

connect - -> be_connected
@enduml

PlantUML version 1.2022.13beta8(Unknown compile time)
(GPL source distribution)
Java Runtime: Java(TM) SE Runtime Environment
JVM: Java HotSpot(TM) 64-Bit Server VM
Default Encoding: UTF-8
Language: en
Country: US
--></g></svg>